<svg width="78" height="39" viewBox="0 0 78 39" fill="none" xmlns="http://www.w3.org/2000/svg">
<rect width="78" height="39" rx="10" fill="#E62D2D"/>
<path d="M18.96 21.16H23.152V20.168H18.96V21.16ZM34.5864 21.032H32.3464V18.44H31.2264V21.032H26.3624L32.0904 13.8H30.8104L24.8744 21.224V22.056H31.1944V25H32.3464V22.056H34.5864V21.032ZM40.1085 25.096C42.7005 25.096 44.5885 22.968 44.5885 19.4C44.5885 15.832 42.7005 13.704 40.1085 13.704C37.5165 13.704 35.6445 15.832 35.6445 19.4C35.6445 22.968 37.5165 25.096 40.1085 25.096ZM40.1085 24.04C38.1565 24.04 36.8125 22.392 36.8125 19.4C36.8125 16.408 38.1565 14.76 40.1085 14.76C42.0605 14.76 43.4045 16.408 43.4045 19.4C43.4045 22.392 42.0605 24.04 40.1085 24.04ZM48.6063 19.8C50.0943 19.8 51.1343 18.6 51.1343 16.76C51.1343 14.92 50.0943 13.72 48.6063 13.72C47.1023 13.72 46.0783 14.936 46.0783 16.76C46.0783 18.584 47.1023 19.8 48.6063 19.8ZM47.7423 25H48.6863L56.3343 13.8H55.3903L47.7423 25ZM48.6063 19.08C47.5503 19.08 46.8783 18.2 46.8783 16.76C46.8783 15.32 47.5503 14.44 48.6063 14.44C49.6463 14.44 50.3343 15.304 50.3343 16.76C50.3343 18.216 49.6463 19.08 48.6063 19.08ZM55.4703 25.08C56.9743 25.08 57.9983 23.864 57.9983 22.04C57.9983 20.216 56.9743 19 55.4703 19C53.9823 19 52.9423 20.216 52.9423 22.04C52.9423 23.864 53.9823 25.08 55.4703 25.08ZM55.4703 24.36C54.4303 24.36 53.7423 23.496 53.7423 22.04C53.7423 20.584 54.4303 19.72 55.4703 19.72C56.5263 19.72 57.1983 20.6 57.1983 22.04C57.1983 23.48 56.5263 24.36 55.4703 24.36Z" fill="white"/>
</svg>
