<svg width="42" height="42" viewBox="0 0 42 42" fill="none" xmlns="http://www.w3.org/2000/svg">
<path d="M28 0H14C10.2903 0.0107117 6.73553 1.48915 4.11234 4.11234C1.48915 6.73553 0.0107117 10.2903 0 14V28C0.0107117 31.7097 1.48915 35.2645 4.11234 37.8877C6.73553 40.5109 10.2903 41.9893 14 42H28C31.7097 41.9893 35.2645 40.5109 37.8877 37.8877C40.5109 35.2645 41.9893 31.7097 42 28V14C41.9893 10.2903 40.5109 6.73553 37.8877 4.11234C35.2645 1.48915 31.7097 0.0107117 28 0V0Z" fill="#FEE600"/>
<path d="M29.1666 22.0207H16.7411L22.4433 27.7232V29.1666H20.9998L12.8333 20.9999L21 12.8333H22.4434V14.2767L16.7411 19.9791H29.1666V22.0207Z" fill="#2B2D33"/>
</svg>
