<svg width="42" height="42" viewBox="0 0 42 42" fill="none" xmlns="http://www.w3.org/2000/svg">
<path d="M14 0H28C31.7097 0.0107117 35.2645 1.48915 37.8877 4.11234C40.5109 6.73553 41.9893 10.2903 42 14V28C41.9893 31.7097 40.5109 35.2645 37.8877 37.8877C35.2645 40.5109 31.7097 41.9893 28 42H14C10.2903 41.9893 6.73553 40.5109 4.11234 37.8877C1.48915 35.2645 0.0107117 31.7097 0 28L0 14C0.0107117 10.2903 1.48915 6.73553 4.11234 4.11234C6.73553 1.48915 10.2903 0.0107117 14 0V0Z" fill="#FEE600"/>
<path d="M12.8333 22.0207H25.2589L19.5567 27.7232V29.1666H21.0001L29.1666 20.9999L21 12.8333H19.5565V14.2767L25.2589 19.9791H12.8333V22.0207Z" fill="#2B2D33"/>
</svg>
